<?xml version="1.0" encoding="UTF-8" standalone="no"?>
<svg
   version="1.1"
   width="1500"
   height="1500"
   viewBox="0 0 1500 1500"
   id="svg18"
   sodipodi:docname="logo.svg"
   inkscape:version="1.3 (0e150ed6c4, 2023-07-21)"
   xmlns:inkscape="http://www.inkscape.org/namespaces/inkscape"
   xmlns:sodipodi="http://sodipodi.sourceforge.net/DTD/sodipodi-0.dtd"
   xmlns="http://www.w3.org/2000/svg"
   xmlns:svg="http://www.w3.org/2000/svg">
  <defs
     id="defs18" />
  <sodipodi:namedview
     id="namedview18"
     pagecolor="#ffffff"
     bordercolor="#000000"
     borderopacity="0.25"
     inkscape:showpageshadow="2"
     inkscape:pageopacity="0.0"
     inkscape:pagecheckerboard="0"
     inkscape:deskcolor="#d1d1d1"
     inkscape:zoom="0.54733333"
     inkscape:cx="749.08648"
     inkscape:cy="750"
     inkscape:window-width="1920"
     inkscape:window-height="1017"
     inkscape:window-x="1912"
     inkscape:window-y="-8"
     inkscape:window-maximized="1"
     inkscape:current-layer="g17" />
  <g
     transform="matrix(1,0,0,1,0,0.00042104387182462233)"
     id="g17">
    <svg
       viewBox="0 0 280 280"
       data-background-color="#ffffff"
       preserveAspectRatio="xMidYMid meet"
       height="1500"
       width="1500"
       version="1.1"
       id="svg17">
      <g
         id="tight-bounds"
         transform="matrix(1,0,0,1,0,0.000035832391660051144)">
        <svg
           viewBox="0 0 280 280"
           height="280"
           width="280"
           version="1.1"
           id="svg16">
          <g
             id="g16">
            <svg
               viewBox="0 0 280 280"
               height="280"
               width="280"
               version="1.1"
               id="svg15">
              <g
                 id="g15">
                <svg
                   viewBox="0 0 280 280"
                   height="280"
                   width="280"
                   version="1.1"
                   id="svg14">
                  <g
                     id="textblocktransform">
                    <svg
                       viewBox="0 0 280 280"
                       height="280"
                       width="280"
                       id="textblock"
                       version="1.1">
                      <g
                         id="g14">
                        <svg
                           viewBox="0 0 280 280"
                           height="280"
                           width="280"
                           version="1.1"
                           id="svg13">
                          <g
                             transform="matrix(1,0,0,1,86.99073579035775,74.00336708925556)"
                             id="g2">
                            <svg
                               viewBox="0 0 106.01852841928452 131.99326582148888"
                               height="131.99326582148888"
                               width="106.01852841928452"
                               version="1.1"
                               id="svg1">
                              <g
                                 id="g1">
                                <svg
                                   version="1.1"
                                   x="0"
                                   y="0"
                                   viewBox="9.733037484505635 4.953351704614942 72.28796251549437 89.99864829538505"
                                   enable-background="new 0 0 100 100"
                                   xml:space="preserve"
                                   height="131.99326582148888"
                                   width="106.01852841928452"
                                   class="icon-xg-0"
                                   data-fill-palette-color="accent"
                                   id="xg-0"><path
                                   d="M65.422 45.17c-0.983 3.057-4.149 4.803-7.096 3.93-2.948-0.765-4.694-4.039-3.93-7.096 0.983-3.057 4.149-4.803 7.096-3.93C64.549 39.056 66.296 42.223 65.422 45.17zM64.331 23.553c1.965-0.545 3.056-2.51 2.51-4.476-0.545-1.965-2.51-3.056-4.476-2.51-1.856 0.545-2.948 2.62-2.51 4.476C60.4 23.008 62.366 24.098 64.331 23.553zM37.91 18.968c-3.93 0.327-6.769 3.821-6.441 7.642 0.437 3.822 3.821 6.66 7.642 6.441 3.93-0.327 6.769-3.821 6.441-7.642C45.225 21.479 41.731 18.64 37.91 18.968zM16.248 60.523c-0.109-1.092-0.279-1.599-0.062-2.581 0.437-2.402 0-3.276-2.402-4.149-0.764-0.219-1.42-0.437-2.184-0.873-1.965-1.092-2.402-2.293-1.201-4.367 1.965-3.493 4.258-6.987 6.223-10.589 0.655-1.092 0.437-2.838 0.437-4.258 0-1.528-0.764-3.276-0.437-4.803 0.873-3.057 1.856-6.114 3.166-8.952 3.057-6.878 8.734-11.027 15.721-12.882 7.97-2.184 16.375-3.057 24.345-0.764C70.443 9.36 82.015 18.639 82.015 31.74c0 4.367-0.983 9.061-2.838 12.992-5.35 11.353-6.332 16.594-3.385 28.712 0 0 0 1.092 1.856 4.04 0 0 1.863 2.174 4.373 5.103-8.679 7.689-20.087 12.365-32.594 12.365-3.249 0-6.421-0.323-9.494-0.924 0.401-0.906 0.842-1.952 1.034-3.006-0.219-1.201-0.328-2.402-0.655-3.385-1.092-3.493-2.402-6.987-3.712-10.48-0.655-1.965-2.402-1.965-4.258-1.746-2.838 0.219-5.895 0.655-8.734 0.328-4.367-0.437-5.35-2.293-5.241-6.659 0.109-1.201-0.219-2.948-0.983-3.821-1.528-1.528-0.983-2.62 0-3.93C16.426 61.591 16.248 60.523 16.248 60.523zM54.068 20.496l3.166 0.873c0 0.219 0.109 0.437 0.109 0.545 0.109 0.219 0.109 0.437 0.219 0.545l-2.293 2.51c0.545 0.873 0.983 1.528 1.746 2.184l2.838-1.746c0.328 0.219 0.655 0.437 0.983 0.545l0.109 3.276c0.873 0.219 1.747 0.328 2.729 0.328l0.873-3.166c0.219 0 0.437-0.109 0.545-0.109 0.219-0.109 0.437-0.109 0.545-0.219l2.51 2.293c0.873-0.545 1.528-0.983 2.184-1.746l-1.746-2.838c0.219-0.328 0.437-0.655 0.545-0.983l3.276-0.109c0.219-0.873 0.328-1.747 0.328-2.729l-3.166-0.764c0-0.219-0.109-0.437-0.109-0.545-0.109-0.219-0.109-0.437-0.219-0.545l2.293-2.51c-0.545-0.873-0.983-1.528-1.746-2.184l-2.838 1.747c-0.328-0.219-0.655-0.437-0.983-0.545l-0.109-3.276c-0.873-0.219-1.747-0.328-2.729-0.328l-0.873 3.166c-0.219 0-0.437 0.109-0.545 0.109-0.219 0.109-0.437 0.109-0.545 0.219L58.762 12.2c-0.873 0.545-1.528 0.983-2.184 1.747l1.746 2.838c-0.219 0.328-0.437 0.655-0.545 0.983h-3.384C54.177 18.64 54.068 19.514 54.068 20.496zM43.477 39.928c1.31-0.545 2.729-1.092 3.821-2.074l-1.201-3.276c0.983-0.873 1.747-1.747 2.402-2.838l3.493 0.655c0.655-1.31 0.983-2.729 1.31-4.149l-3.166-1.528c0-0.655 0-1.201 0-1.856-0.109-0.655-0.219-1.201-0.328-1.747l2.838-2.074c-0.545-1.31-1.092-2.729-2.074-3.821l-3.276 1.201c-0.873-0.983-1.747-1.746-2.838-2.402l0.655-3.493c-1.31-0.655-2.729-0.983-4.149-1.31l-1.528 3.166c-0.655 0-1.201 0-1.856 0-0.655 0.109-1.201 0.219-1.747 0.328l-2.074-2.838c-1.31 0.545-2.729 1.092-3.821 2.074l1.201 3.276c-0.983 0.873-1.747 1.746-2.402 2.838l-3.493-0.655c-0.655 1.31-0.983 2.729-1.31 4.149l3.166 1.528c0 0.655 0 1.201 0 1.856 0.109 0.655 0.219 1.201 0.328 1.747l-2.838 2.074c0.545 1.31 1.092 2.729 2.074 3.821l3.275-1.201c0.873 0.983 1.747 1.747 2.838 2.402l-0.655 3.385c1.201 0.764 2.73 1.2 4.149 1.419l1.528-3.166c0.655 0 1.201 0 1.856 0 0.655-0.109 1.201-0.219 1.747-0.328L43.477 39.928zM72.954 51.175l-3.821-3.93c0.109-0.328 0.219-0.545 0.328-0.873 0.109-0.328 0.219-0.655 0.219-0.983l5.131-1.31c0.109-1.42-0.109-2.838-0.545-4.367l-5.35-0.109c-0.219-0.545-0.545-1.092-0.873-1.528l2.729-4.585c-0.983-0.983-2.074-1.965-3.385-2.729l-3.93 3.602c-0.328-0.109-0.545-0.219-0.873-0.328-0.328-0.109-0.655-0.219-0.983-0.219l-1.31-5.131c-1.42-0.109-2.838 0.109-4.367 0.545v5.567c-0.545 0.219-1.092 0.545-1.528 0.873l-4.585-2.729c-0.981 0.874-1.856 2.075-2.62 3.277l3.602 3.93c-0.109 0.328-0.219 0.545-0.328 0.873-0.109 0.328-0.219 0.655-0.219 0.983l-5.131 1.201c-0.109 1.42 0.109 2.838 0.545 4.367l5.35 0.109c0.219 0.545 0.545 1.092 0.873 1.528l-2.729 4.585c0.983 0.983 2.074 1.965 3.385 2.729l3.93-3.602c0.328 0.109 0.545 0.219 0.873 0.328 0.328 0.109 0.655 0.219 0.983 0.219l1.31 5.131c1.42 0.109 2.838-0.109 4.367-0.545l0.109-5.35c0.545-0.219 1.092-0.545 1.528-0.873l4.585 2.729C71.207 53.577 72.19 52.485 72.954 51.175z"
                                   fill="#010c80"
                                   data-fill-palette-color="accent"
                                   id="path1"
                                   style="fill:#ffffff" /></svg>
                              </g>
                            </svg>
                          </g>
                          <g
                             id="g13">
                            <path
                               d="M16.251 102.637l11.999 4.147c0.516 0.178 0.826 0.43 0.932 0.755v0c0.186 0.501 0.195 0.993 0.028 1.478v0c-0.233 0.673-0.683 1.038-1.351 1.096v0c-0.219 0.002-0.457-0.042-0.715-0.131v0l-23.27-8.043c-0.547-0.189-0.893-0.492-1.037-0.908-0.147-0.41-0.17-0.759-0.071-1.049 0.1-0.289 0.215-0.52 0.345-0.694 0.137-0.171 0.311-0.308 0.523-0.41v0c0.413-0.258 0.862-0.304 1.346-0.137v0l10.111 3.495-7.277-14.965c-0.266-0.493-0.329-0.941-0.19-1.343 0.139-0.402 0.388-0.704 0.745-0.904 0.358-0.2 0.722-0.236 1.093-0.108 0.371 0.128 0.667 0.34 0.89 0.635v0l6.235 13.305 15.673-6.821c1.033-0.361 1.717-0.089 2.052 0.815v0c0.154 0.49 0.165 0.927 0.033 1.31v0c-0.178 0.516-0.545 0.843-1.1 0.982v0z"
                               fill="#010c80"
                               data-fill-palette-color="primary"
                               id="path2"
                               style="fill:#ffffff" />
                            <path
                               d="M68.541 49.416l-15.261-19.257c-0.442-0.558-0.492-1.172-0.149-1.843v0c0.141-0.154 0.347-0.36 0.618-0.617 0.271-0.257 0.619-0.381 1.045-0.369 0.425 0.011 0.817 0.244 1.176 0.697v0l15.261 19.257c0.508 0.641 0.555 1.279 0.141 1.913v0c-0.12 0.18-0.313 0.376-0.579 0.586-0.266 0.211-0.617 0.315-1.052 0.312-0.441 0.001-0.841-0.225-1.2-0.679z"
                               fill="#010c80"
                               data-fill-palette-color="primary"
                               id="path3"
                               style="fill:#ffffff" />
                            <path
                               d="M135.29 2.881l10.801 22.102c0.045 0.197 0.075 0.399 0.088 0.604 0.013 0.206-0.028 0.415-0.122 0.628-0.087 0.205-0.214 0.366-0.38 0.483v0c-0.32 0.326-0.682 0.502-1.087 0.527v0c-0.823 0.051-1.393-0.274-1.71-0.974v0l-2.881-6.022-13.786 0.85-2.08 6.327c-0.195 0.732-0.648 1.12-1.358 1.164-0.717 0.044-1.281-0.228-1.69-0.816v0c-0.119-0.199-0.184-0.385-0.195-0.558-0.01-0.166 0.029-0.388 0.119-0.667v0l7.846-23.251c0.572-1.748 1.296-2.77 2.171-3.064v0c0.237-0.048 0.539-0.117 0.907-0.206v0c0.684-0.042 1.205 0.079 1.562 0.364v0c0.57 0.378 1.168 1.215 1.795 2.509zM132.013 2.923l-5.001 15.387 11.904-0.734z"
                               fill="#010c80"
                               data-fill-palette-color="primary"
                               id="path4"
                               style="fill:#ffffff" />
                            <path
                               d="M207.06 31.867l-6.739 10.759c-0.29 0.462-0.605 0.709-0.945 0.738v0c-0.53 0.069-1.012-0.033-1.446-0.305v0c-0.603-0.378-0.858-0.899-0.765-1.562v0c0.047-0.214 0.144-0.436 0.289-0.667v0l13.07-20.866c0.307-0.491 0.68-0.76 1.117-0.807 0.432-0.051 0.778 0.005 1.038 0.167 0.259 0.162 0.459 0.327 0.598 0.493 0.136 0.172 0.23 0.372 0.283 0.601v0c0.159 0.461 0.102 0.908-0.169 1.342v0l-5.68 9.067 16.218-3.726c0.54-0.148 0.991-0.109 1.352 0.117 0.361 0.226 0.599 0.536 0.713 0.93 0.115 0.394 0.068 0.757-0.14 1.089-0.208 0.333-0.481 0.574-0.819 0.724v0l-14.367 3.083 3.122 16.806c0.12 1.088-0.299 1.693-1.255 1.816v0c-0.512 0.04-0.94-0.047-1.284-0.263v0c-0.462-0.29-0.699-0.72-0.71-1.292v0z"
                               fill="#010c80"
                               data-fill-palette-color="primary"
                               id="path5"
                               style="fill:#ffffff" />
                            <path
                               d="M259.707 92.878l-11.784 4.721c-0.506 0.203-0.906 0.216-1.199 0.039v0c-0.468-0.257-0.798-0.623-0.988-1.098v0c-0.265-0.661-0.164-1.232 0.303-1.713v0c0.164-0.145 0.373-0.268 0.626-0.369v0l22.855-9.155c0.537-0.215 0.997-0.213 1.379 0.007 0.379 0.214 0.626 0.462 0.74 0.746 0.114 0.284 0.178 0.534 0.193 0.751 0.009 0.219-0.033 0.436-0.126 0.652v0c-0.143 0.466-0.452 0.794-0.928 0.985v0l-9.931 3.978 15.298 6.547c0.524 0.199 0.865 0.496 1.023 0.891 0.158 0.395 0.168 0.786 0.029 1.171-0.139 0.386-0.391 0.651-0.756 0.798-0.364 0.146-0.727 0.18-1.088 0.102v0l-13.424-5.975-7.381 15.417c-0.544 0.949-1.239 1.192-2.085 0.727v0c-0.437-0.269-0.732-0.592-0.882-0.969v0c-0.203-0.506-0.14-0.994 0.188-1.462v0z"
                               fill="#010c80"
                               data-fill-palette-color="primary"
                               id="path6"
                               style="fill:#ffffff" />
                            <path
                               d="M24.96 182.163l-11.998 4.148c-0.516 0.178-0.915 0.172-1.199-0.019v0c-0.455-0.279-0.767-0.661-0.935-1.145v0c-0.233-0.673-0.104-1.238 0.386-1.696v0c0.171-0.137 0.385-0.249 0.643-0.338v0l23.27-8.043c0.547-0.189 1.006-0.165 1.377 0.073 0.369 0.232 0.603 0.492 0.703 0.781 0.1 0.289 0.152 0.542 0.156 0.759-0.002 0.219-0.054 0.434-0.157 0.646v0c-0.165 0.458-0.49 0.771-0.974 0.938v0l-10.112 3.495 14.965 7.277c0.514 0.224 0.84 0.537 0.98 0.94 0.139 0.402 0.13 0.793-0.029 1.171-0.158 0.378-0.422 0.632-0.793 0.76-0.371 0.128-0.735 0.145-1.091 0.05v0l-13.121-6.616-8.116 15.044c-0.589 0.922-1.295 1.131-2.117 0.626v0c-0.424-0.29-0.702-0.627-0.835-1.01v0c-0.178-0.516-0.092-0.999 0.259-1.452v0z"
                               fill="#010c80"
                               data-fill-palette-color="secondary"
                               id="path7"
                               style="fill:#ffffff" />
                            <path
                               d="M58.556 250.993l15.262-19.257c0.442-0.558 1.029-0.747 1.76-0.566v0c0.182 0.102 0.43 0.256 0.742 0.461 0.313 0.205 0.512 0.516 0.598 0.933 0.086 0.416-0.051 0.851-0.41 1.304v0l-15.261 19.257c-0.508 0.641-1.118 0.833-1.83 0.574v0c-0.203-0.076-0.437-0.219-0.704-0.43-0.266-0.211-0.447-0.528-0.543-0.953-0.102-0.429 0.027-0.87 0.386-1.323z"
                               fill="#010c80"
                               data-fill-palette-color="secondary"
                               id="path8"
                               style="fill:#ffffff" />
                            <path
                               d="M137.154 254.695l8.005 23.261c0.021 0.201 0.025 0.405 0.012 0.611-0.013 0.206-0.079 0.408-0.197 0.608-0.112 0.193-0.257 0.337-0.437 0.433v0c-0.357 0.285-0.739 0.414-1.144 0.389v0c-0.823-0.051-1.349-0.443-1.577-1.177v0l-2.12-6.33-13.786-0.85-2.841 6.024c-0.283 0.702-0.78 1.032-1.491 0.988-0.717-0.044-1.243-0.383-1.577-1.017v0c-0.094-0.212-0.135-0.405-0.124-0.578 0.01-0.166 0.077-0.382 0.2-0.647v0l10.642-22.112c0.783-1.665 1.626-2.589 2.531-2.773v0c0.241-0.018 0.55-0.049 0.925-0.093v0c0.684 0.042 1.186 0.226 1.506 0.552v0c0.519 0.445 1.01 1.349 1.473 2.711zM133.896 254.334l-6.853 14.656 11.904 0.734z"
                               fill="#010c80"
                               data-fill-palette-color="secondary"
                               id="path9"
                               style="fill:#ffffff" />
                            <path
                               d="M202.168 248.134l6.739 10.759c0.29 0.462 0.374 0.853 0.252 1.173v0c-0.169 0.507-0.471 0.896-0.905 1.167v0c-0.603 0.378-1.183 0.38-1.739 0.006v0c-0.172-0.136-0.33-0.32-0.475-0.55v0l-13.07-20.866c-0.307-0.491-0.387-0.943-0.238-1.358 0.143-0.411 0.344-0.698 0.603-0.86 0.259-0.162 0.494-0.27 0.704-0.324 0.214-0.047 0.435-0.045 0.665 0.008v0c0.484 0.058 0.862 0.304 1.134 0.738v0l5.679 9.067 3.725-16.218c0.102-0.551 0.334-0.939 0.695-1.165 0.361-0.226 0.743-0.305 1.148-0.236 0.404 0.069 0.71 0.269 0.919 0.602 0.208 0.333 0.306 0.683 0.294 1.052v0l-3.496 14.272 16.483 4.526c1.031 0.367 1.393 1.008 1.086 1.922v0c-0.187 0.478-0.453 0.825-0.796 1.04v0c-0.462 0.29-0.953 0.314-1.473 0.075v0z"
                               fill="#010c80"
                               data-fill-palette-color="secondary"
                               id="path10"
                               style="fill:#ffffff" />
                            <path
                               d="M251.154 191.506l11.784 4.72c0.506 0.203 0.805 0.469 0.895 0.8v0c0.162 0.509 0.147 1.001-0.044 1.477v0c-0.265 0.661-0.732 1.004-1.401 1.029v0c-0.219-0.009-0.455-0.064-0.708-0.165v0l-22.855-9.155c-0.537-0.215-0.868-0.534-0.993-0.957-0.127-0.416-0.134-0.767-0.02-1.051 0.114-0.284 0.24-0.51 0.378-0.676 0.145-0.164 0.325-0.293 0.542-0.385v0c0.425-0.238 0.875-0.262 1.351-0.072v0l9.931 3.978-6.547-15.298c-0.242-0.505-0.284-0.956-0.126-1.351 0.158-0.395 0.421-0.684 0.789-0.867 0.367-0.183 0.733-0.201 1.097-0.055 0.364 0.146 0.65 0.372 0.857 0.677v0l5.587 13.591 15.983-6.058c1.049-0.311 1.719-0.007 2.011 0.913v0c0.131 0.497 0.121 0.933-0.031 1.31v0c-0.203 0.506-0.585 0.816-1.146 0.928v0z"
                               fill="#010c80"
                               data-fill-palette-color="secondary"
                               id="path11"
                               style="fill:#ffffff" />
                            <path
                               d="M3.375 143.905c0-5.895 4.779-10.675 10.675-10.674 5.895 0 10.675 4.779 10.675 10.674 0 5.895-4.779 10.675-10.675 10.675-5.895 0-10.675-4.779-10.675-10.675z"
                               fill="#010c80"
                               data-fill-palette-color="primary"
                               id="path12"
                               style="fill:#ffffff" />
                            <path
                               d="M254.877 143.905c0-5.895 4.779-10.675 10.675-10.674 5.895 0 10.675 4.779 10.674 10.674 0 5.895-4.779 10.675-10.674 10.675-5.895 0-10.675-4.779-10.675-10.675z"
                               fill="#010c80"
                               data-fill-palette-color="primary"
                               id="path13"
                               style="fill:#ffffff" />
                          </g>
                        </svg>
                      </g>
                    </svg>
                  </g>
                </svg>
              </g>
            </svg>
          </g>
          <defs
             id="defs16" />
        </svg>
        <rect
           width="280"
           height="280"
           fill="none"
           stroke="none"
           visibility="hidden"
           id="rect16" />
      </g>
    </svg>
  </g>
</svg>
